<svg xmlns="http://www.w3.org/2000/svg" viewBox="0 0 175.216 175.552" width="24" height="24">
  <defs>
    <linearGradient id="b" x1="85.915" y1="32.567" x2="85.915" y2="137.092" gradientUnits="userSpaceOnUse">
      <stop offset="0" stop-color="#37d67a"/>
      <stop offset="1" stop-color="#25d366"/>
    </linearGradient>
    <filter id="a" filterUnits="userSpaceOnUse" color-interpolation-filters="sRGB">
      <feFlood flood-opacity="0" result="BackgroundImageFix"/>
      <feColorMatrix in="SourceAlpha" values="0 0 0 0 0 0 0 0 0 0 0 0 0 0 0 0 0 0 127 0"/>
      <feOffset dy="3"/>
      <feGaussianBlur stdDeviation="3"/>
      <feColorMatrix values="0 0 0 0 0 0 0 0 0 0 0 0 0 0 0 0 0 0 0.2 0"/>
      <feBlend in2="BackgroundImageFix" result="effect1_dropShadow"/>
      <feBlend in="SourceGraphic" in2="effect1_dropShadow" result="shape"/>
    </filter>
  </defs>
  <g filter="url(#a)">
    <path fill="url(#b)" d="m175.216 83.576c0 45.563-37.188 82.741-82.741 82.741-14.274 0-27.676-3.628-39.433-10.01l-42.724 15.655 15.656-42.724c-6.382-11.757-10.01-25.159-10.01-39.433 0-45.562 37.187-82.74 82.74-82.74 45.563 0 82.741 37.178 82.741 82.741z"/>
  </g>
  <path fill="#fff" d="m122.406 95.423c-1.58-0.79-9.377-4.626-10.829-5.156-1.451-0.529-2.51-0.79-3.568 0.79s-4.097 5.156-5.019 6.216c-0.922 1.06-1.843 1.191-3.426 0.396-1.583-0.795-6.69-2.47-12.74-7.875-4.702-4.197-7.875-9.377-8.797-10.957-0.923-1.58-0.105-2.435 0.69-3.225 0.71-0.71 1.58-1.843 2.37-2.765 0.79-0.923 1.06-1.583 1.583-2.636 0.529-1.06 0.264-1.98-0.132-2.77-0.396-0.79-3.568-8.797-4.89-12.031-1.322-3.234-2.643-2.77-3.568-2.77s-2.37-0.132-3.625-0.132c-1.255 0-3.293 0.396-5.019 1.98-1.726 1.583-6.559 6.425-6.559 15.682 0 9.256 6.69 18.182 7.612 19.442 0.923 1.26 12.74 19.442 31.495 26.897 4.097 1.98 7.808 3.168 10.467 4.055 4.89 1.58 9.337 1.355 12.74 0.822 3.955-0.617 12.212-5.005 13.923-9.842 1.711-4.837 1.711-8.987 1.191-9.842-0.52-0.855-1.98-1.32-3.568-2.11zm-69.646 36.416c-1.843 0-3.362-0.617-4.89-1.98-1.98-1.711-4.097-4.097-4.097-4.097s-3.168-3.034-5.545-5.411c-3.362-3.362-5.675-5.411-7.875-8.797-2.37-3.693-4.097-7.808-5.411-12.212-1.58-5.411-2.37-10.957-2.37-16.503 0-10.957 4.097-21.388 11.292-29.12 7.195-7.732 16.503-11.847 27.46-11.847h0.264c10.693 0 20.79 4.115 28.257 11.582 7.467 7.467 11.582 17.564 11.582 28.257 0 10.693-4.115 20.79-11.582 28.257-3.693 3.693-7.875 6.559-12.74 8.402-2.37 0.923-4.89 1.58-7.408 1.98-0.79 0.132-1.58 0.264-2.37 0.264z"/>
</svg>
